<?xml version="1.0" encoding="UTF-8" standalone="no"?>
<svg width="421px" height="211px" viewBox="0 0 421 211" version="1.1" xmlns="http://www.w3.org/2000/svg" xmlns:xlink="http://www.w3.org/1999/xlink">
    <!-- Generator: Sketch 3.7.1 (28215) - http://www.bohemiancoding.com/sketch -->
    <title>Medicover-GO-LOGO-RGB_kontra (1)</title>
    <desc>Created with Sketch.</desc>
    <defs></defs>
    <g id="Page-1" stroke="none" stroke-width="1" fill="none" fill-rule="evenodd">
        <g id="Medicover-GO-LOGO-RGB_kontra-(1)" transform="translate(-73.000000, -49.000000)">
            <g id="Warstwa_2"></g>
            <g id="Warstwa_1"></g>
            <g id="Layer_3" transform="translate(73.000000, 49.000000)" fill="#ffffff">
                <g id="Group">
                    <g id="Shape">
                        <g>
                            <g transform="translate(112.000000, 0.000000)">
                                <path d="M133.957,15.058 C155.922,23.293 172.395,41.412 182.006,65.163 C170.75,44.3 153.455,29.198 131.758,21.095 C110.071,12.998 84.404,9.57 62.162,17.806 C85.09,6.271 111.998,6.819 133.957,15.058 L133.957,15.058 Z"></path>
                                <path d="M65.459,5.724 C43.632,14.371 27.709,32.766 18.511,56.787 C29.353,35.784 46.379,20.275 67.929,11.624 C89.346,3.112 114.745,2.151 136.978,9.977 C113.916,-1.139 87.29,-2.928 65.459,5.724 L65.459,5.724 Z"></path>
                                <path d="M94.287,18.35 C72.735,19.312 53.105,30.567 37.865,48.688 C53.654,33.59 73.28,25.217 94.559,24.255 C115.841,23.292 139.451,27.55 156.47,41.141 C139.723,24.53 115.975,17.392 94.287,18.35 L94.287,18.35 Z"></path>
                                <g transform="translate(0.000000, 56.000000)">
                                    <path d="M97.445,23.714 C103.898,23.714 109.118,18.361 109.118,12.045 C109.118,5.593 103.898,0.375 97.445,0.375 C90.994,0.375 85.777,5.593 85.777,12.045 C85.777,18.362 90.994,23.714 97.445,23.714 L97.445,23.714 Z"></path>
                                    <path d="M117.488,70.382 C117.488,34.969 166.22,18.906 194.359,14.79 L194.359,14.79 C166.082,14.79 118.725,17.535 97.445,38.814 L97.445,38.814 L97.445,38.814 L97.445,38.814 L97.445,38.814 L97.445,38.814 L97.445,38.814 C76.166,17.535 28.809,14.79 0.526,14.79 L0.526,14.79 C28.668,18.907 77.401,34.969 77.401,70.382 L117.488,70.382 L117.488,70.382 Z"></path>
                                </g>
                            </g>
                            <g transform="translate(0.000000, 159.000000)">
                                <path d="M370.114,50.335 L370.114,41.135 L348.977,41.135 L348.977,29.471 L368.608,29.471 L368.608,20.274 L348.977,20.274 L348.977,10.39 L369.432,10.39 L369.432,1.193 L336.62,1.193 L336.62,50.335 L370.114,50.335 L370.114,50.335 Z M225.563,46.218 L225.563,34.824 C219.662,38.806 213.625,41.003 207.72,41.003 C198.523,41.003 192.761,34.963 192.761,25.765 C192.761,16.431 198.798,10.666 208.819,10.666 C214.171,10.666 219.662,12.45 225.156,15.88 L225.156,4.487 C219.662,1.744 214.035,0.374 207.993,0.374 C190.838,0.374 180.129,10.938 180.129,25.765 C180.129,33.176 182.873,39.633 187.679,44.296 C192.484,48.827 198.934,51.296 206.759,51.296 C213.625,51.296 219.801,49.653 225.563,46.218 L225.563,46.218 L225.563,46.218 Z M172.717,50.335 L172.717,1.193 L159.952,1.193 L159.952,50.335 L172.717,50.335 L172.717,50.335 Z M96.393,50.335 L96.393,41.135 L75.252,41.135 L75.252,29.471 L94.882,29.471 L94.882,20.274 L75.252,20.274 L75.252,10.39 L95.702,10.39 L95.702,1.193 L62.9,1.193 L62.9,50.335 L96.393,50.335 L96.393,50.335 L96.393,50.335 Z M53.285,50.335 L53.285,1.193 L42.442,1.193 L26.522,21.101 L10.868,1.193 L0.025,1.193 L0.025,50.335 L12.106,50.335 L12.106,19.999 L26.522,37.984 L41.211,19.999 L41.211,50.335 L53.285,50.335 L53.285,50.335 Z"></path>
                                <path d="M142.792,6.27 C138.258,2.838 133.455,1.743 128.103,1.332 C126.316,1.332 124.535,1.193 122.477,1.193 L104.083,1.193 L104.083,50.335 L122.477,50.335 C124.535,50.335 126.316,50.335 128.103,50.197 C132.77,50.066 136.888,49.237 140.868,46.631 C148.279,41.823 152.397,34.549 152.397,25.764 C152.397,17.802 149.106,11.076 142.792,6.27 L142.792,6.27 Z M128.103,40.175 C127.275,40.314 126.455,40.453 125.495,40.453 L116.433,40.453 L116.433,11.216 L125.495,11.216 C126.455,11.216 127.275,11.216 128.103,11.352 C135.103,12.45 139.77,18.076 139.77,25.765 C139.769,33.454 135.103,39.079 128.103,40.175 L128.103,40.175 Z"></path>
                                <path d="M282.814,18.215 C281.572,14.095 279.375,10.527 276.082,7.373 C271.28,2.701 264.832,0.374 257.134,0.374 C249.311,0.374 243.001,2.701 238.056,7.373 C233.116,12.176 230.375,18.491 230.375,25.765 C230.375,33.039 233.116,39.492 238.056,44.16 C243.001,48.827 249.31,51.296 257.134,51.296 C264.831,51.296 271.143,48.827 276.082,44.16 C279.375,41.136 281.572,37.571 282.814,33.454 C283.496,30.981 283.909,28.512 283.909,25.765 C283.909,23.153 283.496,20.688 282.814,18.215 L282.814,18.215 Z M257.134,40.863 C248.907,40.863 243.001,34.688 243.001,25.765 C243.001,16.973 248.907,10.802 257.134,10.802 C265.239,10.802 271.143,16.974 271.143,25.765 C271.144,34.688 265.24,40.863 257.134,40.863 L257.134,40.863 Z"></path>
                                <polygon points="319.875 1.193 306.971 29.885 294.892 1.193 281.712 1.193 282.814 3.531 304.093 50.888 309.305 50.888 333.191 1.193"></polygon>
                                <path d="M413.086,33.592 C411.71,30.434 409.651,28.373 407.321,27.274 C413.225,24.667 415.827,20.824 415.827,15.472 C415.827,5.722 409.517,1.333 396.747,1.194 L378.08,1.194 L378.08,50.336 L390.435,50.336 L390.435,30.434 C390.984,30.434 391.394,30.297 391.944,30.297 C393.867,30.297 395.511,30.575 396.747,31.121 C398.53,32.081 399.631,33.593 400.727,36.199 L407.042,50.337 L420.907,50.337 L413.086,33.592 L413.086,33.592 Z M396.747,21.377 L390.435,21.377 L390.435,9.977 L396.747,9.977 C400.867,10.116 403.065,12.176 403.065,15.605 C403.065,19.449 401.005,21.236 396.747,21.377 L396.747,21.377 Z"></path>
                            </g>
                        </g>
                    </g>
                </g>
            </g>
        </g>
    </g>
</svg>